# xmcd
#
# Track frame offsets:
#	150
#	50607
#	93018
#	107828
#	160392
#
# Disc length: 2378 seconds
#
# Revision: 2
# Processed by: cddbd v1.5.2PL0 Copyright (c) Steve Scherf et al.
# Submitted via: audiograbber 1.83.01
#
DISCID=37094805
DTITLE=Franz Schubert - AR 2010
DYEAR=1900
DGENRE=
TTITLE0=Die Tragische, Adagio molto - Allegro vivace
TTITLE1=Die Tragische, Andante
TTITLE2=Die Tragische, Menuetto - Allegro vivace
TTITLE3=Die Tragische, Allegro
TTITLE4=Data Track
EXTD=
EXTT0=
EXTT1=
EXTT2=
EXTT3=
EXTT4=
PLAYORDER=
